<svg width="128" height="128" viewBox="0 0 128 128" fill="none" xmlns="http://www.w3.org/2000/svg">
  <rect x="6" y="6" width="116" height="116" rx="30" fill="#0E0E0E"/>
  <rect x="6.5" y="6.5" width="115" height="115" rx="29.5" stroke="url(#stroke)" stroke-opacity="0.42"/>
  <rect x="23" y="23" width="82" height="82" rx="22" fill="url(#panel)"/>
  <rect x="30" y="30" width="22" height="22" rx="6" fill="#EEF2F1"/>
  <rect x="57" y="30" width="11" height="11" rx="3" fill="#EEF2F1" fill-opacity="0.95"/>
  <rect x="30" y="57" width="11" height="11" rx="3" fill="#EEF2F1" fill-opacity="0.95"/>
  <rect x="76" y="76" width="22" height="22" rx="6" fill="#EEF2F1"/>
  <rect x="76" y="49" width="11" height="11" rx="3" fill="#EEF2F1" fill-opacity="0.8"/>
  <rect x="87" y="60" width="11" height="11" rx="3" fill="#EEF2F1" fill-opacity="0.62"/>
  <path d="M38 86H74" stroke="url(#beam)" stroke-width="10" stroke-linecap="round"/>
  <path d="M34 86H90" stroke="#EEF2F1" stroke-opacity="0.22" stroke-width="22" stroke-linecap="round" filter="url(#glow)"/>
  <defs>
    <linearGradient id="stroke" x1="16" y1="12" x2="110" y2="118" gradientUnits="userSpaceOnUse">
      <stop stop-color="#EEF2F1"/>
      <stop offset="1" stop-color="#EEF2F1" stop-opacity="0.08"/>
    </linearGradient>
    <linearGradient id="panel" x1="64" y1="23" x2="64" y2="105" gradientUnits="userSpaceOnUse">
      <stop stop-color="#171717"/>
      <stop offset="1" stop-color="#121212"/>
    </linearGradient>
    <linearGradient id="beam" x1="38" y1="86" x2="74" y2="86" gradientUnits="userSpaceOnUse">
      <stop stop-color="#EEF2F1" stop-opacity="0.12"/>
      <stop offset="0.2" stop-color="#EEF2F1"/>
      <stop offset="0.85" stop-color="#D6DDDB"/>
      <stop offset="1" stop-color="#EEF2F1" stop-opacity="0.14"/>
    </linearGradient>
    <filter id="glow" x="7" y="59" width="110" height="54" filterUnits="userSpaceOnUse" color-interpolation-filters="sRGB">
      <feFlood flood-opacity="0" result="BackgroundImageFix"/>
      <feBlend mode="normal" in="SourceGraphic" in2="BackgroundImageFix" result="shape"/>
      <feGaussianBlur stdDeviation="5.5" result="effect1_foregroundBlur_1_2"/>
    </filter>
  </defs>
</svg>
